<?xml version="1.0" encoding="utf-8" standalone="no"?>
<!DOCTYPE svg PUBLIC "-//W3C//DTD SVG 1.1//EN"
  "http://www.w3.org/Graphics/SVG/1.1/DTD/svg11.dtd">
<!-- Created with matplotlib (http://matplotlib.org/) -->
<svg height="345.6pt" version="1.1" viewBox="0 0 460.8 345.6" width="460.8pt" xmlns="http://www.w3.org/2000/svg" xmlns:xlink="http://www.w3.org/1999/xlink">
 <defs>
  <style type="text/css">
*{stroke-linecap:butt;stroke-linejoin:round;}
  </style>
 </defs>
 <g id="figure_1">
  <g id="patch_1">
   <path d="M 0 345.6 
L 460.8 345.6 
L 460.8 0 
L 0 0 
z
" style="fill:#ffffff;"/>
  </g>
  <g id="axes_1">
   <g id="patch_2">
    <path d="M 74.99 289.6 
L 439.412727 289.6 
L 439.412727 18.72 
L 74.99 18.72 
z
" style="fill:#ffffff;"/>
   </g>
   <g id="matplotlib.axis_1">
    <g id="xtick_1">
     <g id="line2d_1">
      <path clip-path="url(#pb715f7a6eb)" d="M 91.554669 289.6 
L 91.554669 18.72 
" style="fill:none;stroke:#b0b0b0;stroke-linecap:square;stroke-width:0.8;"/>
     </g>
     <g id="line2d_2">
      <defs>
       <path d="M 0 0 
L 0 3.5 
" id="ma7e2fd237b" style="stroke:#000000;stroke-width:0.8;"/>
      </defs>
      <g>
       <use style="stroke:#000000;stroke-width:0.8;" x="91.554669" xlink:href="#ma7e2fd237b" y="289.6"/>
      </g>
     </g>
     <g id="text_1">
      <text style="font-family:DejaVu Sans;font-size:15px;font-style:normal;font-weight:normal;text-anchor:middle;" transform="rotate(-0, 91.554669, 307.997656)" x="91.554669" y="307.997656">0%</text>
     </g>
    </g>
    <g id="xtick_2">
     <g id="line2d_3">
      <path clip-path="url(#pb715f7a6eb)" d="M 146.770234 289.6 
L 146.770234 18.72 
" style="fill:none;stroke:#b0b0b0;stroke-linecap:square;stroke-width:0.8;"/>
     </g>
     <g id="line2d_4">
      <g>
       <use style="stroke:#000000;stroke-width:0.8;" x="146.770234" xlink:href="#ma7e2fd237b" y="289.6"/>
      </g>
     </g>
     <g id="text_2">
      <text style="font-family:DejaVu Sans;font-size:15px;font-style:normal;font-weight:normal;text-anchor:middle;" transform="rotate(-0, 146.770234, 307.997656)" x="146.770234" y="307.997656">17%</text>
     </g>
    </g>
    <g id="xtick_3">
     <g id="line2d_5">
      <path clip-path="url(#pb715f7a6eb)" d="M 201.985799 289.6 
L 201.985799 18.72 
" style="fill:none;stroke:#b0b0b0;stroke-linecap:square;stroke-width:0.8;"/>
     </g>
     <g id="line2d_6">
      <g>
       <use style="stroke:#000000;stroke-width:0.8;" x="201.985799" xlink:href="#ma7e2fd237b" y="289.6"/>
      </g>
     </g>
     <g id="text_3">
      <text style="font-family:DejaVu Sans;font-size:15px;font-style:normal;font-weight:normal;text-anchor:middle;" transform="rotate(-0, 201.985799, 307.997656)" x="201.985799" y="307.997656">33%</text>
     </g>
    </g>
    <g id="xtick_4">
     <g id="line2d_7">
      <path clip-path="url(#pb715f7a6eb)" d="M 257.201364 289.6 
L 257.201364 18.72 
" style="fill:none;stroke:#b0b0b0;stroke-linecap:square;stroke-width:0.8;"/>
     </g>
     <g id="line2d_8">
      <g>
       <use style="stroke:#000000;stroke-width:0.8;" x="257.201364" xlink:href="#ma7e2fd237b" y="289.6"/>
      </g>
     </g>
     <g id="text_4">
      <text style="font-family:DejaVu Sans;font-size:15px;font-style:normal;font-weight:normal;text-anchor:middle;" transform="rotate(-0, 257.201364, 307.997656)" x="257.201364" y="307.997656">50%</text>
     </g>
    </g>
    <g id="xtick_5">
     <g id="line2d_9">
      <path clip-path="url(#pb715f7a6eb)" d="M 312.416928 289.6 
L 312.416928 18.72 
" style="fill:none;stroke:#b0b0b0;stroke-linecap:square;stroke-width:0.8;"/>
     </g>
     <g id="line2d_10">
      <g>
       <use style="stroke:#000000;stroke-width:0.8;" x="312.416928" xlink:href="#ma7e2fd237b" y="289.6"/>
      </g>
     </g>
     <g id="text_5">
      <text style="font-family:DejaVu Sans;font-size:15px;font-style:normal;font-weight:normal;text-anchor:middle;" transform="rotate(-0, 312.416928, 307.997656)" x="312.416928" y="307.997656">67%</text>
     </g>
    </g>
    <g id="xtick_6">
     <g id="line2d_11">
      <path clip-path="url(#pb715f7a6eb)" d="M 367.632493 289.6 
L 367.632493 18.72 
" style="fill:none;stroke:#b0b0b0;stroke-linecap:square;stroke-width:0.8;"/>
     </g>
     <g id="line2d_12">
      <g>
       <use style="stroke:#000000;stroke-width:0.8;" x="367.632493" xlink:href="#ma7e2fd237b" y="289.6"/>
      </g>
     </g>
     <g id="text_6">
      <text style="font-family:DejaVu Sans;font-size:15px;font-style:normal;font-weight:normal;text-anchor:middle;" transform="rotate(-0, 367.632493, 307.997656)" x="367.632493" y="307.997656">83%</text>
     </g>
    </g>
    <g id="xtick_7">
     <g id="line2d_13">
      <path clip-path="url(#pb715f7a6eb)" d="M 422.848058 289.6 
L 422.848058 18.72 
" style="fill:none;stroke:#b0b0b0;stroke-linecap:square;stroke-width:0.8;"/>
     </g>
     <g id="line2d_14">
      <g>
       <use style="stroke:#000000;stroke-width:0.8;" x="422.848058" xlink:href="#ma7e2fd237b" y="289.6"/>
      </g>
     </g>
     <g id="text_7">
      <text style="font-family:DejaVu Sans;font-size:15px;font-style:normal;font-weight:normal;text-anchor:middle;" transform="rotate(-0, 422.848058, 307.997656)" x="422.848058" y="307.997656">100%</text>
     </g>
    </g>
    <g id="text_8">
     <text style="font-family:DejaVu Sans;font-size:15px;font-style:normal;font-weight:normal;text-anchor:middle;" transform="rotate(-0, 257.201364, 326.514844)" x="257.201364" y="326.514844">relative Position in der Datei</text>
    </g>
   </g>
   <g id="matplotlib.axis_2">
    <g id="ytick_1">
     <g id="line2d_15">
      <path clip-path="url(#pb715f7a6eb)" d="M 74.99 287.442099 
L 439.412727 287.442099 
" style="fill:none;stroke:#b0b0b0;stroke-linecap:square;stroke-width:0.8;"/>
     </g>
     <g id="line2d_16">
      <defs>
       <path d="M 0 0 
L -3.5 0 
" id="mb02a037000" style="stroke:#000000;stroke-width:0.8;"/>
      </defs>
      <g>
       <use style="stroke:#000000;stroke-width:0.8;" x="74.99" xlink:href="#mb02a037000" y="287.442099"/>
      </g>
     </g>
     <g id="text_9">
      <text style="font-family:DejaVu Sans;font-size:15px;font-style:normal;font-weight:normal;text-anchor:end;" transform="rotate(-0, 67.99, 293.140927)" x="67.99" y="293.140927">0%</text>
     </g>
    </g>
    <g id="ytick_2">
     <g id="line2d_17">
      <path clip-path="url(#pb715f7a6eb)" d="M 74.99 254.946654 
L 439.412727 254.946654 
" style="fill:none;stroke:#b0b0b0;stroke-linecap:square;stroke-width:0.8;"/>
     </g>
     <g id="line2d_18">
      <g>
       <use style="stroke:#000000;stroke-width:0.8;" x="74.99" xlink:href="#mb02a037000" y="254.946654"/>
      </g>
     </g>
     <g id="text_10">
      <text style="font-family:DejaVu Sans;font-size:15px;font-style:normal;font-weight:normal;text-anchor:end;" transform="rotate(-0, 67.99, 260.645482)" x="67.99" y="260.645482">10%</text>
     </g>
    </g>
    <g id="ytick_3">
     <g id="line2d_19">
      <path clip-path="url(#pb715f7a6eb)" d="M 74.99 222.451209 
L 439.412727 222.451209 
" style="fill:none;stroke:#b0b0b0;stroke-linecap:square;stroke-width:0.8;"/>
     </g>
     <g id="line2d_20">
      <g>
       <use style="stroke:#000000;stroke-width:0.8;" x="74.99" xlink:href="#mb02a037000" y="222.451209"/>
      </g>
     </g>
     <g id="text_11">
      <text style="font-family:DejaVu Sans;font-size:15px;font-style:normal;font-weight:normal;text-anchor:end;" transform="rotate(-0, 67.99, 228.150037)" x="67.99" y="228.150037">20%</text>
     </g>
    </g>
    <g id="ytick_4">
     <g id="line2d_21">
      <path clip-path="url(#pb715f7a6eb)" d="M 74.99 189.955764 
L 439.412727 189.955764 
" style="fill:none;stroke:#b0b0b0;stroke-linecap:square;stroke-width:0.8;"/>
     </g>
     <g id="line2d_22">
      <g>
       <use style="stroke:#000000;stroke-width:0.8;" x="74.99" xlink:href="#mb02a037000" y="189.955764"/>
      </g>
     </g>
     <g id="text_12">
      <text style="font-family:DejaVu Sans;font-size:15px;font-style:normal;font-weight:normal;text-anchor:end;" transform="rotate(-0, 67.99, 195.654592)" x="67.99" y="195.654592">30%</text>
     </g>
    </g>
    <g id="ytick_5">
     <g id="line2d_23">
      <path clip-path="url(#pb715f7a6eb)" d="M 74.99 157.460319 
L 439.412727 157.460319 
" style="fill:none;stroke:#b0b0b0;stroke-linecap:square;stroke-width:0.8;"/>
     </g>
     <g id="line2d_24">
      <g>
       <use style="stroke:#000000;stroke-width:0.8;" x="74.99" xlink:href="#mb02a037000" y="157.460319"/>
      </g>
     </g>
     <g id="text_13">
      <text style="font-family:DejaVu Sans;font-size:15px;font-style:normal;font-weight:normal;text-anchor:end;" transform="rotate(-0, 67.99, 163.159147)" x="67.99" y="163.159147">40%</text>
     </g>
    </g>
    <g id="ytick_6">
     <g id="line2d_25">
      <path clip-path="url(#pb715f7a6eb)" d="M 74.99 124.964873 
L 439.412727 124.964873 
" style="fill:none;stroke:#b0b0b0;stroke-linecap:square;stroke-width:0.8;"/>
     </g>
     <g id="line2d_26">
      <g>
       <use style="stroke:#000000;stroke-width:0.8;" x="74.99" xlink:href="#mb02a037000" y="124.964873"/>
      </g>
     </g>
     <g id="text_14">
      <text style="font-family:DejaVu Sans;font-size:15px;font-style:normal;font-weight:normal;text-anchor:end;" transform="rotate(-0, 67.99, 130.663702)" x="67.99" y="130.663702">50%</text>
     </g>
    </g>
    <g id="ytick_7">
     <g id="line2d_27">
      <path clip-path="url(#pb715f7a6eb)" d="M 74.99 92.469428 
L 439.412727 92.469428 
" style="fill:none;stroke:#b0b0b0;stroke-linecap:square;stroke-width:0.8;"/>
     </g>
     <g id="line2d_28">
      <g>
       <use style="stroke:#000000;stroke-width:0.8;" x="74.99" xlink:href="#mb02a037000" y="92.469428"/>
      </g>
     </g>
     <g id="text_15">
      <text style="font-family:DejaVu Sans;font-size:15px;font-style:normal;font-weight:normal;text-anchor:end;" transform="rotate(-0, 67.99, 98.168256)" x="67.99" y="98.168256">60%</text>
     </g>
    </g>
    <g id="ytick_8">
     <g id="line2d_29">
      <path clip-path="url(#pb715f7a6eb)" d="M 74.99 59.973983 
L 439.412727 59.973983 
" style="fill:none;stroke:#b0b0b0;stroke-linecap:square;stroke-width:0.8;"/>
     </g>
     <g id="line2d_30">
      <g>
       <use style="stroke:#000000;stroke-width:0.8;" x="74.99" xlink:href="#mb02a037000" y="59.973983"/>
      </g>
     </g>
     <g id="text_16">
      <text style="font-family:DejaVu Sans;font-size:15px;font-style:normal;font-weight:normal;text-anchor:end;" transform="rotate(-0, 67.99, 65.672811)" x="67.99" y="65.672811">70%</text>
     </g>
    </g>
    <g id="ytick_9">
     <g id="line2d_31">
      <path clip-path="url(#pb715f7a6eb)" d="M 74.99 27.478538 
L 439.412727 27.478538 
" style="fill:none;stroke:#b0b0b0;stroke-linecap:square;stroke-width:0.8;"/>
     </g>
     <g id="line2d_32">
      <g>
       <use style="stroke:#000000;stroke-width:0.8;" x="74.99" xlink:href="#mb02a037000" y="27.478538"/>
      </g>
     </g>
     <g id="text_17">
      <text style="font-family:DejaVu Sans;font-size:15px;font-style:normal;font-weight:normal;text-anchor:end;" transform="rotate(-0, 67.99, 33.177366)" x="67.99" y="33.177366">80%</text>
     </g>
    </g>
    <g id="text_18">
     <text style="font-family:DejaVu Sans;font-size:15px;font-style:normal;font-weight:normal;text-anchor:middle;" transform="rotate(-90, 27.530625, 154.16)" x="27.530625" y="154.16">relative Häufigkeit</text>
    </g>
   </g>
   <g id="line2d_33">
    <path clip-path="url(#pb715f7a6eb)" d="M 91.554669 196.04866 
L 113.640895 61.497207 
L 135.727121 43.726261 
L 157.813347 31.032727 
L 179.899573 51.342381 
L 201.985799 58.9585 
L 224.072025 51.342381 
L 246.158251 89.42298 
L 268.244477 94.500394 
L 290.330702 104.65522 
L 312.416928 79.268154 
L 334.503154 48.803674 
L 356.58938 38.648847 
L 378.675606 150.35194 
L 400.761832 208.742193 
L 422.848058 214.907624 
" style="fill:none;stroke:#1f77b4;stroke-linecap:square;stroke-width:1.5;"/>
   </g>
   <g id="line2d_34">
    <path clip-path="url(#pb715f7a6eb)" d="M 91.554669 259.516326 
L 113.640895 259.516326 
L 135.727121 254.438913 
L 157.813347 259.516326 
L 179.899573 244.284086 
L 201.985799 264.593739 
L 224.072025 239.206673 
L 246.158251 229.051846 
L 268.244477 223.974433 
L 290.330702 218.89702 
L 312.416928 251.900206 
L 334.503154 262.055033 
L 356.58938 262.055033 
L 378.675606 213.819606 
L 400.761832 190.971246 
L 422.848058 197.499349 
" style="fill:none;stroke:#ff7f0e;stroke-linecap:square;stroke-width:1.5;"/>
   </g>
   <g id="line2d_35">
    <path clip-path="url(#pb715f7a6eb)" d="M 91.554669 178.277713 
L 113.640895 264.593739 
L 135.727121 249.3615 
L 157.813347 262.055033 
L 179.899573 262.055033 
L 201.985799 251.900206 
L 224.072025 262.055033 
L 246.158251 254.438913 
L 268.244477 251.900206 
L 290.330702 256.977619 
L 312.416928 236.667966 
L 334.503154 264.593739 
L 356.58938 259.516326 
L 378.675606 221.435726 
L 400.761832 188.43254 
L 422.848058 197.499349 
" style="fill:none;stroke:#2ca02c;stroke-linecap:square;stroke-width:1.5;"/>
   </g>
   <g id="line2d_36">
    <path clip-path="url(#pb715f7a6eb)" d="M 91.554669 190.971246 
L 113.640895 239.206673 
L 135.727121 277.287273 
L 157.813347 272.209859 
L 179.899573 267.132446 
L 201.985799 249.3615 
L 224.072025 272.209859 
L 246.158251 251.900206 
L 268.244477 254.438913 
L 290.330702 244.284086 
L 312.416928 256.977619 
L 334.503154 249.3615 
L 356.58938 264.593739 
L 378.675606 239.206673 
L 400.761832 236.667966 
L 422.848058 214.907624 
" style="fill:none;stroke:#d62728;stroke-linecap:square;stroke-width:1.5;"/>
   </g>
   <g id="patch_3">
    <path d="M 74.99 289.6 
L 74.99 18.72 
" style="fill:none;stroke:#000000;stroke-linecap:square;stroke-linejoin:miter;stroke-width:0.8;"/>
   </g>
   <g id="patch_4">
    <path d="M 439.412727 289.6 
L 439.412727 18.72 
" style="fill:none;stroke:#000000;stroke-linecap:square;stroke-linejoin:miter;stroke-width:0.8;"/>
   </g>
   <g id="patch_5">
    <path d="M 74.99 289.6 
L 439.412727 289.6 
" style="fill:none;stroke:#000000;stroke-linecap:square;stroke-linejoin:miter;stroke-width:0.8;"/>
   </g>
   <g id="patch_6">
    <path d="M 74.99 18.72 
L 439.412727 18.72 
" style="fill:none;stroke:#000000;stroke-linecap:square;stroke-linejoin:miter;stroke-width:0.8;"/>
   </g>
   <g id="legend_1">
    <g id="patch_7">
     <path d="M 227.390036 200.444375 
L 287.012692 200.444375 
Q 290.012692 200.444375 290.012692 197.444375 
L 290.012692 110.875625 
Q 290.012692 107.875625 287.012692 107.875625 
L 227.390036 107.875625 
Q 224.390036 107.875625 224.390036 110.875625 
L 224.390036 197.444375 
Q 224.390036 200.444375 227.390036 200.444375 
z
" style="fill:#ffffff;opacity:0.8;stroke:#cccccc;stroke-linejoin:miter;"/>
    </g>
    <g id="line2d_37">
     <path d="M 230.390036 120.023281 
L 260.390036 120.023281 
" style="fill:none;stroke:#1f77b4;stroke-linecap:square;stroke-width:1.5;"/>
    </g>
    <g id="line2d_38"/>
    <g id="text_19">
     <text style="font-family:DejaVu Sans;font-size:15px;font-style:normal;font-weight:normal;text-anchor:start;" transform="rotate(-0, 272.390036, 125.273281)" x="272.390036" y="125.273281">A</text>
    </g>
    <g id="line2d_39">
     <path d="M 230.390036 142.040469 
L 260.390036 142.040469 
" style="fill:none;stroke:#ff7f0e;stroke-linecap:square;stroke-width:1.5;"/>
    </g>
    <g id="line2d_40"/>
    <g id="text_20">
     <text style="font-family:DejaVu Sans;font-size:15px;font-style:normal;font-weight:normal;text-anchor:start;" transform="rotate(-0, 272.390036, 147.290469)" x="272.390036" y="147.290469">C</text>
    </g>
    <g id="line2d_41">
     <path d="M 230.390036 164.057656 
L 260.390036 164.057656 
" style="fill:none;stroke:#2ca02c;stroke-linecap:square;stroke-width:1.5;"/>
    </g>
    <g id="line2d_42"/>
    <g id="text_21">
     <text style="font-family:DejaVu Sans;font-size:15px;font-style:normal;font-weight:normal;text-anchor:start;" transform="rotate(-0, 272.390036, 169.307656)" x="272.390036" y="169.307656">G</text>
    </g>
    <g id="line2d_43">
     <path d="M 230.390036 186.074844 
L 260.390036 186.074844 
" style="fill:none;stroke:#d62728;stroke-linecap:square;stroke-width:1.5;"/>
    </g>
    <g id="line2d_44"/>
    <g id="text_22">
     <text style="font-family:DejaVu Sans;font-size:15px;font-style:normal;font-weight:normal;text-anchor:start;" transform="rotate(-0, 272.390036, 191.324844)" x="272.390036" y="191.324844">T</text>
    </g>
   </g>
  </g>
 </g>
 <defs>
  <clipPath id="pb715f7a6eb">
   <rect height="270.88" width="364.422727" x="74.99" y="18.72"/>
  </clipPath>
 </defs>
</svg>
