<?xml version="1.0" encoding="utf-8" standalone="no"?>
<!DOCTYPE svg PUBLIC "-//W3C//DTD SVG 1.1//EN"
  "http://www.w3.org/Graphics/SVG/1.1/DTD/svg11.dtd">
<!-- Created with matplotlib (http://matplotlib.org/) -->
<svg height="345.6pt" version="1.1" viewBox="0 0 460.8 345.6" width="460.8pt" xmlns="http://www.w3.org/2000/svg" xmlns:xlink="http://www.w3.org/1999/xlink">
 <defs>
  <style type="text/css">
*{stroke-linecap:butt;stroke-linejoin:round;}
  </style>
 </defs>
 <g id="figure_1">
  <g id="patch_1">
   <path d="M 0 345.6 
L 460.8 345.6 
L 460.8 0 
L 0 0 
z
" style="fill:#ffffff;"/>
  </g>
  <g id="axes_1">
   <g id="patch_2">
    <path d="M 56.5 308 
L 442.08 308 
L 442.08 18.72 
L 56.5 18.72 
z
" style="fill:#ffffff;"/>
   </g>
   <g id="matplotlib.axis_1">
    <g id="xtick_1">
     <g id="line2d_1">
      <path clip-path="url(#p8c6ccfa79c)" d="M 104.6975 308 
L 104.6975 18.72 
" style="fill:none;stroke:#b0b0b0;stroke-linecap:square;stroke-width:0.8;"/>
     </g>
     <g id="line2d_2">
      <defs>
       <path d="M 0 0 
L 0 3.5 
" id="m06fb0c880b" style="stroke:#000000;stroke-width:0.8;"/>
      </defs>
      <g>
       <use style="stroke:#000000;stroke-width:0.8;" x="104.6975" xlink:href="#m06fb0c880b" y="308"/>
      </g>
     </g>
     <g id="text_1">
      <text style="font-family:DejaVu Sans;font-size:15px;font-style:normal;font-weight:normal;text-anchor:middle;" transform="rotate(-0, 104.6975, 326.397656)" x="104.6975" y="326.397656">A</text>
     </g>
    </g>
    <g id="xtick_2">
     <g id="line2d_3">
      <path clip-path="url(#p8c6ccfa79c)" d="M 201.0925 308 
L 201.0925 18.72 
" style="fill:none;stroke:#b0b0b0;stroke-linecap:square;stroke-width:0.8;"/>
     </g>
     <g id="line2d_4">
      <g>
       <use style="stroke:#000000;stroke-width:0.8;" x="201.0925" xlink:href="#m06fb0c880b" y="308"/>
      </g>
     </g>
     <g id="text_2">
      <text style="font-family:DejaVu Sans;font-size:15px;font-style:normal;font-weight:normal;text-anchor:middle;" transform="rotate(-0, 201.0925, 326.397656)" x="201.0925" y="326.397656">C</text>
     </g>
    </g>
    <g id="xtick_3">
     <g id="line2d_5">
      <path clip-path="url(#p8c6ccfa79c)" d="M 297.4875 308 
L 297.4875 18.72 
" style="fill:none;stroke:#b0b0b0;stroke-linecap:square;stroke-width:0.8;"/>
     </g>
     <g id="line2d_6">
      <g>
       <use style="stroke:#000000;stroke-width:0.8;" x="297.4875" xlink:href="#m06fb0c880b" y="308"/>
      </g>
     </g>
     <g id="text_3">
      <text style="font-family:DejaVu Sans;font-size:15px;font-style:normal;font-weight:normal;text-anchor:middle;" transform="rotate(-0, 297.4875, 326.397656)" x="297.4875" y="326.397656">G</text>
     </g>
    </g>
    <g id="xtick_4">
     <g id="line2d_7">
      <path clip-path="url(#p8c6ccfa79c)" d="M 393.8825 308 
L 393.8825 18.72 
" style="fill:none;stroke:#b0b0b0;stroke-linecap:square;stroke-width:0.8;"/>
     </g>
     <g id="line2d_8">
      <g>
       <use style="stroke:#000000;stroke-width:0.8;" x="393.8825" xlink:href="#m06fb0c880b" y="308"/>
      </g>
     </g>
     <g id="text_4">
      <text style="font-family:DejaVu Sans;font-size:15px;font-style:normal;font-weight:normal;text-anchor:middle;" transform="rotate(-0, 393.8825, 326.397656)" x="393.8825" y="326.397656">T</text>
     </g>
    </g>
   </g>
   <g id="matplotlib.axis_2">
    <g id="ytick_1">
     <g id="line2d_9">
      <path clip-path="url(#p8c6ccfa79c)" d="M 56.5 253.525195 
L 442.08 253.525195 
" style="fill:none;stroke:#b0b0b0;stroke-linecap:square;stroke-width:0.8;"/>
     </g>
     <g id="line2d_10">
      <defs>
       <path d="M 0 0 
L -3.5 0 
" id="mbbd6813140" style="stroke:#000000;stroke-width:0.8;"/>
      </defs>
      <g>
       <use style="stroke:#000000;stroke-width:0.8;" x="56.5" xlink:href="#mbbd6813140" y="253.525195"/>
      </g>
     </g>
     <g id="text_5">
      <text style="font-family:DejaVu Sans;font-size:15px;font-style:normal;font-weight:normal;text-anchor:end;" transform="rotate(-0, 49.5, 259.224023)" x="49.5" y="259.224023">10%</text>
     </g>
    </g>
    <g id="ytick_2">
     <g id="line2d_11">
      <path clip-path="url(#p8c6ccfa79c)" d="M 56.5 193.415065 
L 442.08 193.415065 
" style="fill:none;stroke:#b0b0b0;stroke-linecap:square;stroke-width:0.8;"/>
     </g>
     <g id="line2d_12">
      <g>
       <use style="stroke:#000000;stroke-width:0.8;" x="56.5" xlink:href="#mbbd6813140" y="193.415065"/>
      </g>
     </g>
     <g id="text_6">
      <text style="font-family:DejaVu Sans;font-size:15px;font-style:normal;font-weight:normal;text-anchor:end;" transform="rotate(-0, 49.5, 199.113893)" x="49.5" y="199.113893">20%</text>
     </g>
    </g>
    <g id="ytick_3">
     <g id="line2d_13">
      <path clip-path="url(#p8c6ccfa79c)" d="M 56.5 133.304935 
L 442.08 133.304935 
" style="fill:none;stroke:#b0b0b0;stroke-linecap:square;stroke-width:0.8;"/>
     </g>
     <g id="line2d_14">
      <g>
       <use style="stroke:#000000;stroke-width:0.8;" x="56.5" xlink:href="#mbbd6813140" y="133.304935"/>
      </g>
     </g>
     <g id="text_7">
      <text style="font-family:DejaVu Sans;font-size:15px;font-style:normal;font-weight:normal;text-anchor:end;" transform="rotate(-0, 49.5, 139.003763)" x="49.5" y="139.003763">30%</text>
     </g>
    </g>
    <g id="ytick_4">
     <g id="line2d_15">
      <path clip-path="url(#p8c6ccfa79c)" d="M 56.5 73.194805 
L 442.08 73.194805 
" style="fill:none;stroke:#b0b0b0;stroke-linecap:square;stroke-width:0.8;"/>
     </g>
     <g id="line2d_16">
      <g>
       <use style="stroke:#000000;stroke-width:0.8;" x="56.5" xlink:href="#mbbd6813140" y="73.194805"/>
      </g>
     </g>
     <g id="text_8">
      <text style="font-family:DejaVu Sans;font-size:15px;font-style:normal;font-weight:normal;text-anchor:end;" transform="rotate(-0, 49.5, 78.893633)" x="49.5" y="78.893633">40%</text>
     </g>
    </g>
   </g>
   <g id="line2d_17">
    <path clip-path="url(#p8c6ccfa79c)" d="M 83.008625 210.321039 
L 126.386375 210.321039 
L 126.386375 125.791169 
L 83.008625 125.791169 
L 83.008625 210.321039 
" style="fill:none;stroke:#000000;stroke-linecap:square;"/>
   </g>
   <g id="line2d_18">
    <path clip-path="url(#p8c6ccfa79c)" d="M 104.6975 210.321039 
L 104.6975 257.282078 
" style="fill:none;stroke:#000000;stroke-linecap:square;"/>
   </g>
   <g id="line2d_19">
    <path clip-path="url(#p8c6ccfa79c)" d="M 104.6975 125.791169 
L 104.6975 31.869091 
" style="fill:none;stroke:#000000;stroke-linecap:square;"/>
   </g>
   <g id="line2d_20">
    <path clip-path="url(#p8c6ccfa79c)" d="M 93.853063 257.282078 
L 115.541938 257.282078 
" style="fill:none;stroke:#000000;stroke-linecap:square;"/>
   </g>
   <g id="line2d_21">
    <path clip-path="url(#p8c6ccfa79c)" d="M 93.853063 31.869091 
L 115.541938 31.869091 
" style="fill:none;stroke:#000000;stroke-linecap:square;"/>
   </g>
   <g id="line2d_22"/>
   <g id="line2d_23">
    <path clip-path="url(#p8c6ccfa79c)" d="M 179.403625 200.928831 
L 222.781375 200.928831 
L 222.781375 153.967792 
L 179.403625 153.967792 
L 179.403625 200.928831 
" style="fill:none;stroke:#000000;stroke-linecap:square;"/>
   </g>
   <g id="line2d_24">
    <path clip-path="url(#p8c6ccfa79c)" d="M 201.0925 200.928831 
L 201.0925 219.713247 
" style="fill:none;stroke:#000000;stroke-linecap:square;"/>
   </g>
   <g id="line2d_25">
    <path clip-path="url(#p8c6ccfa79c)" d="M 201.0925 153.967792 
L 201.0925 144.575584 
" style="fill:none;stroke:#000000;stroke-linecap:square;"/>
   </g>
   <g id="line2d_26">
    <path clip-path="url(#p8c6ccfa79c)" d="M 190.248063 219.713247 
L 211.936937 219.713247 
" style="fill:none;stroke:#000000;stroke-linecap:square;"/>
   </g>
   <g id="line2d_27">
    <path clip-path="url(#p8c6ccfa79c)" d="M 190.248063 144.575584 
L 211.936937 144.575584 
" style="fill:none;stroke:#000000;stroke-linecap:square;"/>
   </g>
   <g id="line2d_28">
    <defs>
     <path d="M 0 3 
C 0.795609 3 1.55874 2.683901 2.12132 2.12132 
C 2.683901 1.55874 3 0.795609 3 0 
C 3 -0.795609 2.683901 -1.55874 2.12132 -2.12132 
C 1.55874 -2.683901 0.795609 -3 0 -3 
C -0.795609 -3 -1.55874 -2.683901 -2.12132 -2.12132 
C -2.683901 -1.55874 -3 -0.795609 -3 0 
C -3 0.795609 -2.683901 1.55874 -2.12132 2.12132 
C -1.55874 2.683901 -0.795609 3 0 3 
z
" id="m9cfaa9aad2" style="stroke:#000000;"/>
    </defs>
    <g clip-path="url(#p8c6ccfa79c)">
     <use style="fill-opacity:0;stroke:#000000;" x="201.0925" xlink:href="#m9cfaa9aad2" y="294.850909"/>
    </g>
   </g>
   <g id="line2d_29">
    <path clip-path="url(#p8c6ccfa79c)" d="M 275.798625 135.183377 
L 319.176375 135.183377 
L 319.176375 97.614545 
L 275.798625 97.614545 
L 275.798625 135.183377 
" style="fill:none;stroke:#000000;stroke-linecap:square;"/>
   </g>
   <g id="line2d_30">
    <path clip-path="url(#p8c6ccfa79c)" d="M 297.4875 135.183377 
L 297.4875 182.144416 
" style="fill:none;stroke:#000000;stroke-linecap:square;"/>
   </g>
   <g id="line2d_31">
    <path clip-path="url(#p8c6ccfa79c)" d="M 297.4875 97.614545 
L 297.4875 88.222338 
" style="fill:none;stroke:#000000;stroke-linecap:square;"/>
   </g>
   <g id="line2d_32">
    <path clip-path="url(#p8c6ccfa79c)" d="M 286.643063 182.144416 
L 308.331937 182.144416 
" style="fill:none;stroke:#000000;stroke-linecap:square;"/>
   </g>
   <g id="line2d_33">
    <path clip-path="url(#p8c6ccfa79c)" d="M 286.643063 88.222338 
L 308.331937 88.222338 
" style="fill:none;stroke:#000000;stroke-linecap:square;"/>
   </g>
   <g id="line2d_34"/>
   <g id="line2d_35">
    <path clip-path="url(#p8c6ccfa79c)" d="M 372.193625 219.713247 
L 415.571375 219.713247 
L 415.571375 153.967792 
L 372.193625 153.967792 
L 372.193625 219.713247 
" style="fill:none;stroke:#000000;stroke-linecap:square;"/>
   </g>
   <g id="line2d_36">
    <path clip-path="url(#p8c6ccfa79c)" d="M 393.8825 219.713247 
L 393.8825 257.282078 
" style="fill:none;stroke:#000000;stroke-linecap:square;"/>
   </g>
   <g id="line2d_37">
    <path clip-path="url(#p8c6ccfa79c)" d="M 393.8825 153.967792 
L 393.8825 125.791169 
" style="fill:none;stroke:#000000;stroke-linecap:square;"/>
   </g>
   <g id="line2d_38">
    <path clip-path="url(#p8c6ccfa79c)" d="M 383.038063 257.282078 
L 404.726937 257.282078 
" style="fill:none;stroke:#000000;stroke-linecap:square;"/>
   </g>
   <g id="line2d_39">
    <path clip-path="url(#p8c6ccfa79c)" d="M 383.038063 125.791169 
L 404.726937 125.791169 
" style="fill:none;stroke:#000000;stroke-linecap:square;"/>
   </g>
   <g id="line2d_40"/>
   <g id="line2d_41">
    <path clip-path="url(#p8c6ccfa79c)" d="M 83.008625 182.144416 
L 126.386375 182.144416 
" style="fill:none;stroke:#ff7f0e;stroke-linecap:square;"/>
   </g>
   <g id="line2d_42">
    <path clip-path="url(#p8c6ccfa79c)" d="M 179.403625 182.144416 
L 222.781375 182.144416 
" style="fill:none;stroke:#ff7f0e;stroke-linecap:square;"/>
   </g>
   <g id="line2d_43">
    <path clip-path="url(#p8c6ccfa79c)" d="M 275.798625 107.006753 
L 319.176375 107.006753 
" style="fill:none;stroke:#ff7f0e;stroke-linecap:square;"/>
   </g>
   <g id="line2d_44">
    <path clip-path="url(#p8c6ccfa79c)" d="M 372.193625 182.144416 
L 415.571375 182.144416 
" style="fill:none;stroke:#ff7f0e;stroke-linecap:square;"/>
   </g>
   <g id="patch_3">
    <path d="M 56.5 308 
L 56.5 18.72 
" style="fill:none;stroke:#000000;stroke-linecap:square;stroke-linejoin:miter;stroke-width:0.8;"/>
   </g>
   <g id="patch_4">
    <path d="M 442.08 308 
L 442.08 18.72 
" style="fill:none;stroke:#000000;stroke-linecap:square;stroke-linejoin:miter;stroke-width:0.8;"/>
   </g>
   <g id="patch_5">
    <path d="M 56.5 308 
L 442.08 308 
" style="fill:none;stroke:#000000;stroke-linecap:square;stroke-linejoin:miter;stroke-width:0.8;"/>
   </g>
   <g id="patch_6">
    <path d="M 56.5 18.72 
L 442.08 18.72 
" style="fill:none;stroke:#000000;stroke-linecap:square;stroke-linejoin:miter;stroke-width:0.8;"/>
   </g>
  </g>
 </g>
 <defs>
  <clipPath id="p8c6ccfa79c">
   <rect height="289.28" width="385.58" x="56.5" y="18.72"/>
  </clipPath>
 </defs>
</svg>
