<?xml version="1.0" encoding="utf-8" standalone="no"?>
<!DOCTYPE svg PUBLIC "-//W3C//DTD SVG 1.1//EN"
  "http://www.w3.org/Graphics/SVG/1.1/DTD/svg11.dtd">
<!-- Created with matplotlib (http://matplotlib.org/) -->
<svg height="345.6pt" version="1.1" viewBox="0 0 460.8 345.6" width="460.8pt" xmlns="http://www.w3.org/2000/svg" xmlns:xlink="http://www.w3.org/1999/xlink">
 <defs>
  <style type="text/css">
*{stroke-linecap:butt;stroke-linejoin:round;}
  </style>
 </defs>
 <g id="figure_1">
  <g id="patch_1">
   <path d="M 0 345.6 
L 460.8 345.6 
L 460.8 0 
L 0 0 
z
" style="fill:#ffffff;"/>
  </g>
  <g id="axes_1">
   <g id="patch_2">
    <path d="M 56.5 308 
L 442.08 308 
L 442.08 18.72 
L 56.5 18.72 
z
" style="fill:#ffffff;"/>
   </g>
   <g id="matplotlib.axis_1">
    <g id="xtick_1">
     <g id="line2d_1">
      <path clip-path="url(#p3d9d252e7b)" d="M 104.6975 308 
L 104.6975 18.72 
" style="fill:none;stroke:#b0b0b0;stroke-linecap:square;stroke-width:0.8;"/>
     </g>
     <g id="line2d_2">
      <defs>
       <path d="M 0 0 
L 0 3.5 
" id="mfe0703eaa4" style="stroke:#000000;stroke-width:0.8;"/>
      </defs>
      <g>
       <use style="stroke:#000000;stroke-width:0.8;" x="104.6975" xlink:href="#mfe0703eaa4" y="308"/>
      </g>
     </g>
     <g id="text_1">
      <text style="font-family:DejaVu Sans;font-size:15px;font-style:normal;font-weight:normal;text-anchor:middle;" transform="rotate(-0, 104.6975, 326.397656)" x="104.6975" y="326.397656">A</text>
     </g>
    </g>
    <g id="xtick_2">
     <g id="line2d_3">
      <path clip-path="url(#p3d9d252e7b)" d="M 201.0925 308 
L 201.0925 18.72 
" style="fill:none;stroke:#b0b0b0;stroke-linecap:square;stroke-width:0.8;"/>
     </g>
     <g id="line2d_4">
      <g>
       <use style="stroke:#000000;stroke-width:0.8;" x="201.0925" xlink:href="#mfe0703eaa4" y="308"/>
      </g>
     </g>
     <g id="text_2">
      <text style="font-family:DejaVu Sans;font-size:15px;font-style:normal;font-weight:normal;text-anchor:middle;" transform="rotate(-0, 201.0925, 326.397656)" x="201.0925" y="326.397656">C</text>
     </g>
    </g>
    <g id="xtick_3">
     <g id="line2d_5">
      <path clip-path="url(#p3d9d252e7b)" d="M 297.4875 308 
L 297.4875 18.72 
" style="fill:none;stroke:#b0b0b0;stroke-linecap:square;stroke-width:0.8;"/>
     </g>
     <g id="line2d_6">
      <g>
       <use style="stroke:#000000;stroke-width:0.8;" x="297.4875" xlink:href="#mfe0703eaa4" y="308"/>
      </g>
     </g>
     <g id="text_3">
      <text style="font-family:DejaVu Sans;font-size:15px;font-style:normal;font-weight:normal;text-anchor:middle;" transform="rotate(-0, 297.4875, 326.397656)" x="297.4875" y="326.397656">G</text>
     </g>
    </g>
    <g id="xtick_4">
     <g id="line2d_7">
      <path clip-path="url(#p3d9d252e7b)" d="M 393.8825 308 
L 393.8825 18.72 
" style="fill:none;stroke:#b0b0b0;stroke-linecap:square;stroke-width:0.8;"/>
     </g>
     <g id="line2d_8">
      <g>
       <use style="stroke:#000000;stroke-width:0.8;" x="393.8825" xlink:href="#mfe0703eaa4" y="308"/>
      </g>
     </g>
     <g id="text_4">
      <text style="font-family:DejaVu Sans;font-size:15px;font-style:normal;font-weight:normal;text-anchor:middle;" transform="rotate(-0, 393.8825, 326.397656)" x="393.8825" y="326.397656">T</text>
     </g>
    </g>
   </g>
   <g id="matplotlib.axis_2">
    <g id="ytick_1">
     <g id="line2d_9">
      <path clip-path="url(#p3d9d252e7b)" d="M 56.5 256.280242 
L 442.08 256.280242 
" style="fill:none;stroke:#b0b0b0;stroke-linecap:square;stroke-width:0.8;"/>
     </g>
     <g id="line2d_10">
      <defs>
       <path d="M 0 0 
L -3.5 0 
" id="m8b0ce3e667" style="stroke:#000000;stroke-width:0.8;"/>
      </defs>
      <g>
       <use style="stroke:#000000;stroke-width:0.8;" x="56.5" xlink:href="#m8b0ce3e667" y="256.280242"/>
      </g>
     </g>
     <g id="text_5">
      <text style="font-family:DejaVu Sans;font-size:15px;font-style:normal;font-weight:normal;text-anchor:end;" transform="rotate(-0, 49.5, 261.979071)" x="49.5" y="261.979071">10%</text>
     </g>
    </g>
    <g id="ytick_2">
     <g id="line2d_11">
      <path clip-path="url(#p3d9d252e7b)" d="M 56.5 200.177455 
L 442.08 200.177455 
" style="fill:none;stroke:#b0b0b0;stroke-linecap:square;stroke-width:0.8;"/>
     </g>
     <g id="line2d_12">
      <g>
       <use style="stroke:#000000;stroke-width:0.8;" x="56.5" xlink:href="#m8b0ce3e667" y="200.177455"/>
      </g>
     </g>
     <g id="text_6">
      <text style="font-family:DejaVu Sans;font-size:15px;font-style:normal;font-weight:normal;text-anchor:end;" transform="rotate(-0, 49.5, 205.876283)" x="49.5" y="205.876283">20%</text>
     </g>
    </g>
    <g id="ytick_3">
     <g id="line2d_13">
      <path clip-path="url(#p3d9d252e7b)" d="M 56.5 144.074667 
L 442.08 144.074667 
" style="fill:none;stroke:#b0b0b0;stroke-linecap:square;stroke-width:0.8;"/>
     </g>
     <g id="line2d_14">
      <g>
       <use style="stroke:#000000;stroke-width:0.8;" x="56.5" xlink:href="#m8b0ce3e667" y="144.074667"/>
      </g>
     </g>
     <g id="text_7">
      <text style="font-family:DejaVu Sans;font-size:15px;font-style:normal;font-weight:normal;text-anchor:end;" transform="rotate(-0, 49.5, 149.773495)" x="49.5" y="149.773495">30%</text>
     </g>
    </g>
    <g id="ytick_4">
     <g id="line2d_15">
      <path clip-path="url(#p3d9d252e7b)" d="M 56.5 87.971879 
L 442.08 87.971879 
" style="fill:none;stroke:#b0b0b0;stroke-linecap:square;stroke-width:0.8;"/>
     </g>
     <g id="line2d_16">
      <g>
       <use style="stroke:#000000;stroke-width:0.8;" x="56.5" xlink:href="#m8b0ce3e667" y="87.971879"/>
      </g>
     </g>
     <g id="text_8">
      <text style="font-family:DejaVu Sans;font-size:15px;font-style:normal;font-weight:normal;text-anchor:end;" transform="rotate(-0, 49.5, 93.670707)" x="49.5" y="93.670707">40%</text>
     </g>
    </g>
    <g id="ytick_5">
     <g id="line2d_17">
      <path clip-path="url(#p3d9d252e7b)" d="M 56.5 31.869091 
L 442.08 31.869091 
" style="fill:none;stroke:#b0b0b0;stroke-linecap:square;stroke-width:0.8;"/>
     </g>
     <g id="line2d_18">
      <g>
       <use style="stroke:#000000;stroke-width:0.8;" x="56.5" xlink:href="#m8b0ce3e667" y="31.869091"/>
      </g>
     </g>
     <g id="text_9">
      <text style="font-family:DejaVu Sans;font-size:15px;font-style:normal;font-weight:normal;text-anchor:end;" transform="rotate(-0, 49.5, 37.567919)" x="49.5" y="37.567919">50%</text>
     </g>
    </g>
   </g>
   <g id="line2d_19">
    <path clip-path="url(#p3d9d252e7b)" d="M 83.008625 189.658182 
L 126.386375 189.658182 
L 126.386375 137.061818 
L 83.008625 137.061818 
L 83.008625 189.658182 
" style="fill:none;stroke:#000000;stroke-linecap:square;"/>
   </g>
   <g id="line2d_20">
    <path clip-path="url(#p3d9d252e7b)" d="M 104.6975 189.658182 
L 104.6975 224.722424 
" style="fill:none;stroke:#000000;stroke-linecap:square;"/>
   </g>
   <g id="line2d_21">
    <path clip-path="url(#p3d9d252e7b)" d="M 104.6975 137.061818 
L 104.6975 119.529697 
" style="fill:none;stroke:#000000;stroke-linecap:square;"/>
   </g>
   <g id="line2d_22">
    <path clip-path="url(#p3d9d252e7b)" d="M 93.853063 224.722424 
L 115.541938 224.722424 
" style="fill:none;stroke:#000000;stroke-linecap:square;"/>
   </g>
   <g id="line2d_23">
    <path clip-path="url(#p3d9d252e7b)" d="M 93.853063 119.529697 
L 115.541938 119.529697 
" style="fill:none;stroke:#000000;stroke-linecap:square;"/>
   </g>
   <g id="line2d_24">
    <defs>
     <path d="M 0 3 
C 0.795609 3 1.55874 2.683901 2.12132 2.12132 
C 2.683901 1.55874 3 0.795609 3 0 
C 3 -0.795609 2.683901 -1.55874 2.12132 -2.12132 
C 1.55874 -2.683901 0.795609 -3 0 -3 
C -0.795609 -3 -1.55874 -2.683901 -2.12132 -2.12132 
C -2.683901 -1.55874 -3 -0.795609 -3 0 
C -3 0.795609 -2.683901 1.55874 -2.12132 2.12132 
C -1.55874 2.683901 -0.795609 3 0 3 
z
" id="mca66b53956" style="stroke:#000000;"/>
    </defs>
    <g clip-path="url(#p3d9d252e7b)">
     <use style="fill-opacity:0;stroke:#000000;" x="104.6975" xlink:href="#mca66b53956" y="31.869091"/>
    </g>
   </g>
   <g id="line2d_25">
    <path clip-path="url(#p3d9d252e7b)" d="M 179.403625 215.956364 
L 222.781375 215.956364 
L 222.781375 154.593939 
L 179.403625 154.593939 
L 179.403625 215.956364 
" style="fill:none;stroke:#000000;stroke-linecap:square;"/>
   </g>
   <g id="line2d_26">
    <path clip-path="url(#p3d9d252e7b)" d="M 201.0925 215.956364 
L 201.0925 294.850909 
" style="fill:none;stroke:#000000;stroke-linecap:square;"/>
   </g>
   <g id="line2d_27">
    <path clip-path="url(#p3d9d252e7b)" d="M 201.0925 154.593939 
L 201.0925 119.529697 
" style="fill:none;stroke:#000000;stroke-linecap:square;"/>
   </g>
   <g id="line2d_28">
    <path clip-path="url(#p3d9d252e7b)" d="M 190.248063 294.850909 
L 211.936937 294.850909 
" style="fill:none;stroke:#000000;stroke-linecap:square;"/>
   </g>
   <g id="line2d_29">
    <path clip-path="url(#p3d9d252e7b)" d="M 190.248063 119.529697 
L 211.936937 119.529697 
" style="fill:none;stroke:#000000;stroke-linecap:square;"/>
   </g>
   <g id="line2d_30"/>
   <g id="line2d_31">
    <path clip-path="url(#p3d9d252e7b)" d="M 275.798625 207.190303 
L 319.176375 207.190303 
L 319.176375 145.827879 
L 275.798625 145.827879 
L 275.798625 207.190303 
" style="fill:none;stroke:#000000;stroke-linecap:square;"/>
   </g>
   <g id="line2d_32">
    <path clip-path="url(#p3d9d252e7b)" d="M 297.4875 207.190303 
L 297.4875 242.254545 
" style="fill:none;stroke:#000000;stroke-linecap:square;"/>
   </g>
   <g id="line2d_33">
    <path clip-path="url(#p3d9d252e7b)" d="M 297.4875 145.827879 
L 297.4875 101.997576 
" style="fill:none;stroke:#000000;stroke-linecap:square;"/>
   </g>
   <g id="line2d_34">
    <path clip-path="url(#p3d9d252e7b)" d="M 286.643063 242.254545 
L 308.331937 242.254545 
" style="fill:none;stroke:#000000;stroke-linecap:square;"/>
   </g>
   <g id="line2d_35">
    <path clip-path="url(#p3d9d252e7b)" d="M 286.643063 101.997576 
L 308.331937 101.997576 
" style="fill:none;stroke:#000000;stroke-linecap:square;"/>
   </g>
   <g id="line2d_36"/>
   <g id="line2d_37">
    <path clip-path="url(#p3d9d252e7b)" d="M 372.193625 215.956364 
L 415.571375 215.956364 
L 415.571375 137.061818 
L 372.193625 137.061818 
L 372.193625 215.956364 
" style="fill:none;stroke:#000000;stroke-linecap:square;"/>
   </g>
   <g id="line2d_38">
    <path clip-path="url(#p3d9d252e7b)" d="M 393.8825 215.956364 
L 393.8825 277.318788 
" style="fill:none;stroke:#000000;stroke-linecap:square;"/>
   </g>
   <g id="line2d_39">
    <path clip-path="url(#p3d9d252e7b)" d="M 393.8825 137.061818 
L 393.8825 84.465455 
" style="fill:none;stroke:#000000;stroke-linecap:square;"/>
   </g>
   <g id="line2d_40">
    <path clip-path="url(#p3d9d252e7b)" d="M 383.038063 277.318788 
L 404.726937 277.318788 
" style="fill:none;stroke:#000000;stroke-linecap:square;"/>
   </g>
   <g id="line2d_41">
    <path clip-path="url(#p3d9d252e7b)" d="M 383.038063 84.465455 
L 404.726937 84.465455 
" style="fill:none;stroke:#000000;stroke-linecap:square;"/>
   </g>
   <g id="line2d_42"/>
   <g id="line2d_43">
    <path clip-path="url(#p3d9d252e7b)" d="M 83.008625 154.593939 
L 126.386375 154.593939 
" style="fill:none;stroke:#ff7f0e;stroke-linecap:square;"/>
   </g>
   <g id="line2d_44">
    <path clip-path="url(#p3d9d252e7b)" d="M 179.403625 172.126061 
L 222.781375 172.126061 
" style="fill:none;stroke:#ff7f0e;stroke-linecap:square;"/>
   </g>
   <g id="line2d_45">
    <path clip-path="url(#p3d9d252e7b)" d="M 275.798625 189.658182 
L 319.176375 189.658182 
" style="fill:none;stroke:#ff7f0e;stroke-linecap:square;"/>
   </g>
   <g id="line2d_46">
    <path clip-path="url(#p3d9d252e7b)" d="M 372.193625 172.126061 
L 415.571375 172.126061 
" style="fill:none;stroke:#ff7f0e;stroke-linecap:square;"/>
   </g>
   <g id="patch_3">
    <path d="M 56.5 308 
L 56.5 18.72 
" style="fill:none;stroke:#000000;stroke-linecap:square;stroke-linejoin:miter;stroke-width:0.8;"/>
   </g>
   <g id="patch_4">
    <path d="M 442.08 308 
L 442.08 18.72 
" style="fill:none;stroke:#000000;stroke-linecap:square;stroke-linejoin:miter;stroke-width:0.8;"/>
   </g>
   <g id="patch_5">
    <path d="M 56.5 308 
L 442.08 308 
" style="fill:none;stroke:#000000;stroke-linecap:square;stroke-linejoin:miter;stroke-width:0.8;"/>
   </g>
   <g id="patch_6">
    <path d="M 56.5 18.72 
L 442.08 18.72 
" style="fill:none;stroke:#000000;stroke-linecap:square;stroke-linejoin:miter;stroke-width:0.8;"/>
   </g>
  </g>
 </g>
 <defs>
  <clipPath id="p3d9d252e7b">
   <rect height="289.28" width="385.58" x="56.5" y="18.72"/>
  </clipPath>
 </defs>
</svg>
