<?xml version="1.0" encoding="utf-8" standalone="no"?>
<!DOCTYPE svg PUBLIC "-//W3C//DTD SVG 1.1//EN"
  "http://www.w3.org/Graphics/SVG/1.1/DTD/svg11.dtd">
<!-- Created with matplotlib (http://matplotlib.org/) -->
<svg height="345.6pt" version="1.1" viewBox="0 0 460.8 345.6" width="460.8pt" xmlns="http://www.w3.org/2000/svg" xmlns:xlink="http://www.w3.org/1999/xlink">
 <defs>
  <style type="text/css">
*{stroke-linecap:butt;stroke-linejoin:round;}
  </style>
 </defs>
 <g id="figure_1">
  <g id="patch_1">
   <path d="M 0 345.6 
L 460.8 345.6 
L 460.8 0 
L 0 0 
z
" style="fill:#ffffff;"/>
  </g>
  <g id="axes_1">
   <g id="patch_2">
    <path d="M 74.9 289.6 
L 442.08 289.6 
L 442.08 18.72 
L 74.9 18.72 
z
" style="fill:#ffffff;"/>
   </g>
   <g id="matplotlib.axis_1">
    <g id="xtick_1">
     <g id="line2d_1">
      <path clip-path="url(#p59c7287185)" d="M 91.59 289.6 
L 91.59 18.72 
" style="fill:none;stroke:#b0b0b0;stroke-linecap:square;stroke-width:0.8;"/>
     </g>
     <g id="line2d_2">
      <defs>
       <path d="M 0 0 
L 0 3.5 
" id="m70dbb8e504" style="stroke:#000000;stroke-width:0.8;"/>
      </defs>
      <g>
       <use style="stroke:#000000;stroke-width:0.8;" x="91.59" xlink:href="#m70dbb8e504" y="289.6"/>
      </g>
     </g>
     <g id="text_1">
      <text style="font-family:DejaVu Sans;font-size:15px;font-style:normal;font-weight:normal;text-anchor:middle;" transform="rotate(-0, 91.59, 307.997656)" x="91.59" y="307.997656">0%</text>
     </g>
    </g>
    <g id="xtick_2">
     <g id="line2d_3">
      <path clip-path="url(#p59c7287185)" d="M 139.275714 289.6 
L 139.275714 18.72 
" style="fill:none;stroke:#b0b0b0;stroke-linecap:square;stroke-width:0.8;"/>
     </g>
     <g id="line2d_4">
      <g>
       <use style="stroke:#000000;stroke-width:0.8;" x="139.275714" xlink:href="#m70dbb8e504" y="289.6"/>
      </g>
     </g>
     <g id="text_2">
      <text style="font-family:DejaVu Sans;font-size:15px;font-style:normal;font-weight:normal;text-anchor:middle;" transform="rotate(-0, 139.275714, 307.997656)" x="139.275714" y="307.997656">14%</text>
     </g>
    </g>
    <g id="xtick_3">
     <g id="line2d_5">
      <path clip-path="url(#p59c7287185)" d="M 186.961429 289.6 
L 186.961429 18.72 
" style="fill:none;stroke:#b0b0b0;stroke-linecap:square;stroke-width:0.8;"/>
     </g>
     <g id="line2d_6">
      <g>
       <use style="stroke:#000000;stroke-width:0.8;" x="186.961429" xlink:href="#m70dbb8e504" y="289.6"/>
      </g>
     </g>
     <g id="text_3">
      <text style="font-family:DejaVu Sans;font-size:15px;font-style:normal;font-weight:normal;text-anchor:middle;" transform="rotate(-0, 186.961429, 307.997656)" x="186.961429" y="307.997656">29%</text>
     </g>
    </g>
    <g id="xtick_4">
     <g id="line2d_7">
      <path clip-path="url(#p59c7287185)" d="M 234.647143 289.6 
L 234.647143 18.72 
" style="fill:none;stroke:#b0b0b0;stroke-linecap:square;stroke-width:0.8;"/>
     </g>
     <g id="line2d_8">
      <g>
       <use style="stroke:#000000;stroke-width:0.8;" x="234.647143" xlink:href="#m70dbb8e504" y="289.6"/>
      </g>
     </g>
     <g id="text_4">
      <text style="font-family:DejaVu Sans;font-size:15px;font-style:normal;font-weight:normal;text-anchor:middle;" transform="rotate(-0, 234.647143, 307.997656)" x="234.647143" y="307.997656">43%</text>
     </g>
    </g>
    <g id="xtick_5">
     <g id="line2d_9">
      <path clip-path="url(#p59c7287185)" d="M 282.332857 289.6 
L 282.332857 18.72 
" style="fill:none;stroke:#b0b0b0;stroke-linecap:square;stroke-width:0.8;"/>
     </g>
     <g id="line2d_10">
      <g>
       <use style="stroke:#000000;stroke-width:0.8;" x="282.332857" xlink:href="#m70dbb8e504" y="289.6"/>
      </g>
     </g>
     <g id="text_5">
      <text style="font-family:DejaVu Sans;font-size:15px;font-style:normal;font-weight:normal;text-anchor:middle;" transform="rotate(-0, 282.332857, 307.997656)" x="282.332857" y="307.997656">57%</text>
     </g>
    </g>
    <g id="xtick_6">
     <g id="line2d_11">
      <path clip-path="url(#p59c7287185)" d="M 330.018571 289.6 
L 330.018571 18.72 
" style="fill:none;stroke:#b0b0b0;stroke-linecap:square;stroke-width:0.8;"/>
     </g>
     <g id="line2d_12">
      <g>
       <use style="stroke:#000000;stroke-width:0.8;" x="330.018571" xlink:href="#m70dbb8e504" y="289.6"/>
      </g>
     </g>
     <g id="text_6">
      <text style="font-family:DejaVu Sans;font-size:15px;font-style:normal;font-weight:normal;text-anchor:middle;" transform="rotate(-0, 330.018571, 307.997656)" x="330.018571" y="307.997656">71%</text>
     </g>
    </g>
    <g id="xtick_7">
     <g id="line2d_13">
      <path clip-path="url(#p59c7287185)" d="M 377.704286 289.6 
L 377.704286 18.72 
" style="fill:none;stroke:#b0b0b0;stroke-linecap:square;stroke-width:0.8;"/>
     </g>
     <g id="line2d_14">
      <g>
       <use style="stroke:#000000;stroke-width:0.8;" x="377.704286" xlink:href="#m70dbb8e504" y="289.6"/>
      </g>
     </g>
     <g id="text_7">
      <text style="font-family:DejaVu Sans;font-size:15px;font-style:normal;font-weight:normal;text-anchor:middle;" transform="rotate(-0, 377.704286, 307.997656)" x="377.704286" y="307.997656">86%</text>
     </g>
    </g>
    <g id="xtick_8">
     <g id="line2d_15">
      <path clip-path="url(#p59c7287185)" d="M 425.39 289.6 
L 425.39 18.72 
" style="fill:none;stroke:#b0b0b0;stroke-linecap:square;stroke-width:0.8;"/>
     </g>
     <g id="line2d_16">
      <g>
       <use style="stroke:#000000;stroke-width:0.8;" x="425.39" xlink:href="#m70dbb8e504" y="289.6"/>
      </g>
     </g>
     <g id="text_8">
      <text style="font-family:DejaVu Sans;font-size:15px;font-style:normal;font-weight:normal;text-anchor:middle;" transform="rotate(-0, 425.39, 307.997656)" x="425.39" y="307.997656">100%</text>
     </g>
    </g>
    <g id="text_9">
     <text style="font-family:DejaVu Sans;font-size:15px;font-style:normal;font-weight:normal;text-anchor:middle;" transform="rotate(-0, 258.49, 326.514844)" x="258.49" y="326.514844">relative Position in der Datei</text>
    </g>
   </g>
   <g id="matplotlib.axis_2">
    <g id="ytick_1">
     <g id="line2d_17">
      <path clip-path="url(#p59c7287185)" d="M 74.9 267.236067 
L 442.08 267.236067 
" style="fill:none;stroke:#b0b0b0;stroke-linecap:square;stroke-width:0.8;"/>
     </g>
     <g id="line2d_18">
      <defs>
       <path d="M 0 0 
L -3.5 0 
" id="m0d428e6d8b" style="stroke:#000000;stroke-width:0.8;"/>
      </defs>
      <g>
       <use style="stroke:#000000;stroke-width:0.8;" x="74.9" xlink:href="#m0d428e6d8b" y="267.236067"/>
      </g>
     </g>
     <g id="text_10">
      <text style="font-family:DejaVu Sans;font-size:15px;font-style:normal;font-weight:normal;text-anchor:end;" transform="rotate(-0, 67.9, 272.934895)" x="67.9" y="272.934895">5%</text>
     </g>
    </g>
    <g id="ytick_2">
     <g id="line2d_19">
      <path clip-path="url(#p59c7287185)" d="M 74.9 227.031243 
L 442.08 227.031243 
" style="fill:none;stroke:#b0b0b0;stroke-linecap:square;stroke-width:0.8;"/>
     </g>
     <g id="line2d_20">
      <g>
       <use style="stroke:#000000;stroke-width:0.8;" x="74.9" xlink:href="#m0d428e6d8b" y="227.031243"/>
      </g>
     </g>
     <g id="text_11">
      <text style="font-family:DejaVu Sans;font-size:15px;font-style:normal;font-weight:normal;text-anchor:end;" transform="rotate(-0, 67.9, 232.730071)" x="67.9" y="232.730071">10%</text>
     </g>
    </g>
    <g id="ytick_3">
     <g id="line2d_21">
      <path clip-path="url(#p59c7287185)" d="M 74.9 186.826419 
L 442.08 186.826419 
" style="fill:none;stroke:#b0b0b0;stroke-linecap:square;stroke-width:0.8;"/>
     </g>
     <g id="line2d_22">
      <g>
       <use style="stroke:#000000;stroke-width:0.8;" x="74.9" xlink:href="#m0d428e6d8b" y="186.826419"/>
      </g>
     </g>
     <g id="text_12">
      <text style="font-family:DejaVu Sans;font-size:15px;font-style:normal;font-weight:normal;text-anchor:end;" transform="rotate(-0, 67.9, 192.525247)" x="67.9" y="192.525247">15%</text>
     </g>
    </g>
    <g id="ytick_4">
     <g id="line2d_23">
      <path clip-path="url(#p59c7287185)" d="M 74.9 146.621596 
L 442.08 146.621596 
" style="fill:none;stroke:#b0b0b0;stroke-linecap:square;stroke-width:0.8;"/>
     </g>
     <g id="line2d_24">
      <g>
       <use style="stroke:#000000;stroke-width:0.8;" x="74.9" xlink:href="#m0d428e6d8b" y="146.621596"/>
      </g>
     </g>
     <g id="text_13">
      <text style="font-family:DejaVu Sans;font-size:15px;font-style:normal;font-weight:normal;text-anchor:end;" transform="rotate(-0, 67.9, 152.320424)" x="67.9" y="152.320424">20%</text>
     </g>
    </g>
    <g id="ytick_5">
     <g id="line2d_25">
      <path clip-path="url(#p59c7287185)" d="M 74.9 106.416772 
L 442.08 106.416772 
" style="fill:none;stroke:#b0b0b0;stroke-linecap:square;stroke-width:0.8;"/>
     </g>
     <g id="line2d_26">
      <g>
       <use style="stroke:#000000;stroke-width:0.8;" x="74.9" xlink:href="#m0d428e6d8b" y="106.416772"/>
      </g>
     </g>
     <g id="text_14">
      <text style="font-family:DejaVu Sans;font-size:15px;font-style:normal;font-weight:normal;text-anchor:end;" transform="rotate(-0, 67.9, 112.1156)" x="67.9" y="112.1156">25%</text>
     </g>
    </g>
    <g id="ytick_6">
     <g id="line2d_27">
      <path clip-path="url(#p59c7287185)" d="M 74.9 66.211948 
L 442.08 66.211948 
" style="fill:none;stroke:#b0b0b0;stroke-linecap:square;stroke-width:0.8;"/>
     </g>
     <g id="line2d_28">
      <g>
       <use style="stroke:#000000;stroke-width:0.8;" x="74.9" xlink:href="#m0d428e6d8b" y="66.211948"/>
      </g>
     </g>
     <g id="text_15">
      <text style="font-family:DejaVu Sans;font-size:15px;font-style:normal;font-weight:normal;text-anchor:end;" transform="rotate(-0, 67.9, 71.910776)" x="67.9" y="71.910776">30%</text>
     </g>
    </g>
    <g id="ytick_7">
     <g id="line2d_29">
      <path clip-path="url(#p59c7287185)" d="M 74.9 26.007124 
L 442.08 26.007124 
" style="fill:none;stroke:#b0b0b0;stroke-linecap:square;stroke-width:0.8;"/>
     </g>
     <g id="line2d_30">
      <g>
       <use style="stroke:#000000;stroke-width:0.8;" x="74.9" xlink:href="#m0d428e6d8b" y="26.007124"/>
      </g>
     </g>
     <g id="text_16">
      <text style="font-family:DejaVu Sans;font-size:15px;font-style:normal;font-weight:normal;text-anchor:end;" transform="rotate(-0, 67.9, 31.705952)" x="67.9" y="31.705952">35%</text>
     </g>
    </g>
    <g id="text_17">
     <text style="font-family:DejaVu Sans;font-size:15px;font-style:normal;font-weight:normal;text-anchor:middle;" transform="rotate(-90, 27.440625, 154.16)" x="27.440625" y="154.16">relative Häufigkeit</text>
    </g>
   </g>
   <g id="line2d_31">
    <path clip-path="url(#p59c7287185)" d="M 91.59 61.186345 
L 115.432857 96.365566 
L 139.275714 116.467978 
L 163.118571 116.467978 
L 186.961429 126.519184 
L 210.804286 86.31436 
L 234.647143 126.519184 
L 258.49 111.442375 
L 282.332857 121.493581 
L 306.175714 126.519184 
L 330.018571 146.621596 
L 353.861429 141.595993 
L 377.704286 116.467978 
L 401.547143 101.391169 
L 425.39 76.263154 
" style="fill:none;stroke:#1f77b4;stroke-linecap:square;stroke-width:1.5;"/>
   </g>
   <g id="line2d_32">
    <path clip-path="url(#p59c7287185)" d="M 91.59 277.287273 
L 115.432857 111.442375 
L 139.275714 111.442375 
L 163.118571 101.391169 
L 186.961429 121.493581 
L 210.804286 111.442375 
L 234.647143 61.186345 
L 258.49 106.416772 
L 282.332857 126.519184 
L 306.175714 116.467978 
L 330.018571 116.467978 
L 353.861429 76.263154 
L 377.704286 126.519184 
L 401.547143 116.467978 
L 425.39 96.365566 
" style="fill:none;stroke:#ff7f0e;stroke-linecap:square;stroke-width:1.5;"/>
   </g>
   <g id="line2d_33">
    <path clip-path="url(#p59c7287185)" d="M 91.59 31.032727 
L 115.432857 116.467978 
L 139.275714 96.365566 
L 163.118571 71.237551 
L 186.961429 111.442375 
L 210.804286 101.391169 
L 234.647143 156.672801 
L 258.49 116.467978 
L 282.332857 101.391169 
L 306.175714 71.237551 
L 330.018571 46.109536 
L 353.861429 121.493581 
L 377.704286 131.544787 
L 401.547143 66.211948 
L 425.39 166.724007 
" style="fill:none;stroke:#2ca02c;stroke-linecap:square;stroke-width:1.5;"/>
   </g>
   <g id="line2d_34">
    <path clip-path="url(#p59c7287185)" d="M 91.59 56.160742 
L 115.432857 101.391169 
L 139.275714 101.391169 
L 163.118571 136.57039 
L 186.961429 66.211948 
L 210.804286 126.519184 
L 234.647143 81.288757 
L 258.49 91.339963 
L 282.332857 76.263154 
L 306.175714 111.442375 
L 330.018571 116.467978 
L 353.861429 86.31436 
L 377.704286 51.135139 
L 401.547143 141.595993 
L 425.39 86.31436 
" style="fill:none;stroke:#d62728;stroke-linecap:square;stroke-width:1.5;"/>
   </g>
   <g id="patch_3">
    <path d="M 74.9 289.6 
L 74.9 18.72 
" style="fill:none;stroke:#000000;stroke-linecap:square;stroke-linejoin:miter;stroke-width:0.8;"/>
   </g>
   <g id="patch_4">
    <path d="M 442.08 289.6 
L 442.08 18.72 
" style="fill:none;stroke:#000000;stroke-linecap:square;stroke-linejoin:miter;stroke-width:0.8;"/>
   </g>
   <g id="patch_5">
    <path d="M 74.9 289.6 
L 442.08 289.6 
" style="fill:none;stroke:#000000;stroke-linecap:square;stroke-linejoin:miter;stroke-width:0.8;"/>
   </g>
   <g id="patch_6">
    <path d="M 74.9 18.72 
L 442.08 18.72 
" style="fill:none;stroke:#000000;stroke-linecap:square;stroke-linejoin:miter;stroke-width:0.8;"/>
   </g>
   <g id="legend_1">
    <g id="patch_7">
     <path d="M 371.957344 282.1 
L 431.58 282.1 
Q 434.58 282.1 434.58 279.1 
L 434.58 192.53125 
Q 434.58 189.53125 431.58 189.53125 
L 371.957344 189.53125 
Q 368.957344 189.53125 368.957344 192.53125 
L 368.957344 279.1 
Q 368.957344 282.1 371.957344 282.1 
z
" style="fill:#ffffff;opacity:0.8;stroke:#cccccc;stroke-linejoin:miter;"/>
    </g>
    <g id="line2d_35">
     <path d="M 374.957344 201.678906 
L 404.957344 201.678906 
" style="fill:none;stroke:#1f77b4;stroke-linecap:square;stroke-width:1.5;"/>
    </g>
    <g id="line2d_36"/>
    <g id="text_18">
     <text style="font-family:DejaVu Sans;font-size:15px;font-style:normal;font-weight:normal;text-anchor:start;" transform="rotate(-0, 416.957344, 206.928906)" x="416.957344" y="206.928906">A</text>
    </g>
    <g id="line2d_37">
     <path d="M 374.957344 223.696094 
L 404.957344 223.696094 
" style="fill:none;stroke:#ff7f0e;stroke-linecap:square;stroke-width:1.5;"/>
    </g>
    <g id="line2d_38"/>
    <g id="text_19">
     <text style="font-family:DejaVu Sans;font-size:15px;font-style:normal;font-weight:normal;text-anchor:start;" transform="rotate(-0, 416.957344, 228.946094)" x="416.957344" y="228.946094">C</text>
    </g>
    <g id="line2d_39">
     <path d="M 374.957344 245.713281 
L 404.957344 245.713281 
" style="fill:none;stroke:#2ca02c;stroke-linecap:square;stroke-width:1.5;"/>
    </g>
    <g id="line2d_40"/>
    <g id="text_20">
     <text style="font-family:DejaVu Sans;font-size:15px;font-style:normal;font-weight:normal;text-anchor:start;" transform="rotate(-0, 416.957344, 250.963281)" x="416.957344" y="250.963281">G</text>
    </g>
    <g id="line2d_41">
     <path d="M 374.957344 267.730469 
L 404.957344 267.730469 
" style="fill:none;stroke:#d62728;stroke-linecap:square;stroke-width:1.5;"/>
    </g>
    <g id="line2d_42"/>
    <g id="text_21">
     <text style="font-family:DejaVu Sans;font-size:15px;font-style:normal;font-weight:normal;text-anchor:start;" transform="rotate(-0, 416.957344, 272.980469)" x="416.957344" y="272.980469">T</text>
    </g>
   </g>
  </g>
 </g>
 <defs>
  <clipPath id="p59c7287185">
   <rect height="270.88" width="367.18" x="74.9" y="18.72"/>
  </clipPath>
 </defs>
</svg>
